<svg id="Layer_1" data-name="Layer 1" xmlns="http://www.w3.org/2000/svg" xmlns:xlink="http://www.w3.org/1999/xlink" viewBox="0 0 1080 1080"><defs><style>.cls-1{fill:none;}.cls-2{fill:url(#linear-gradient);}.cls-3{clip-path:url(#clip-path);}.cls-4{fill:url(#linear-gradient-2);}.cls-5,.cls-6{fill:#fff;}.cls-6{font-size:36px;font-family:Algerian;}</style><linearGradient id="linear-gradient" x1="748.8" y1="733.38" x2="313.28" y2="331.95" gradientUnits="userSpaceOnUse"><stop offset="0" stop-color="#fd1104"/><stop offset="0.57" stop-color="#f87841"/><stop offset="0.86" stop-color="#f6a65d"/></linearGradient><clipPath id="clip-path"><path class="cls-1" d="M447.9,460.14c-.07,3.09-12.26,6.64-12-6.64s-11.75-40.34-11.75-40.34c-12-43.91,31.41-127.91,22.22-89.36s5.36,30.39,5.36,30.39c-2-52.35,70.72-128.17,47-88.6s-18.9,84.51-1.28,85.53S523,299.8,526,317.1s-2,37.09-41.11,74.36S447.9,460.14,447.9,460.14ZM613.35,532.4c7.14-7.15,12.76-33.19-8.18-14.3s-41.36,24.63-54.63,47-5.11,44.88,5.1,47.43c0,0-2-34.61,19.41-47.43S606.2,539.55,613.35,532.4Zm-35.75-8.68c47-30.13,66.56-95,42.21-146,0,0-6.46-10.21-9,6.64s-30.13,70.47-55.15,77.62-51.57,47-29.61,119.49c0,0,4.59,15.32,9.19,6.13C535.22,587.55,530.62,553.84,577.6,523.72ZM654.07,448s-6.77-7.79-8.68,2.42-4.6,18.77-18.13,30.51-2.17,13.15-2.17,13.15S671.43,478.4,654.07,448Zm-108.13-.9s31.15-18.13,23.49-47c0,0-5.36-8.93-12.77,7.92s-20.5,7.4-54.67,47.23-13.5,80.94,1.06,73.28C503.05,528.57,491.3,489.76,545.94,447.12Zm72.64,99.7a21.57,21.57,0,0,1-15.7,8.68c-10.34.64-8.78,10.77-7.53,11,0,0,31,6.51,35.48-21.19C630.83,545.29,629.69,541.21,618.58,546.82ZM524,415.46c63.83-50.55,57.19-71.74,55.66-92.17s-13.78,15.58-26.55,23-80.94,53.87-97.28,98.81,4.09,83,22,76.59C477.77,521.67,460.15,466,524,415.46Z"/></clipPath><linearGradient id="linear-gradient-2" x1="443.86" y1="279.92" x2="638.95" y2="588.09" gradientUnits="userSpaceOnUse"><stop offset="0" stop-color="#fd1104"/><stop offset="0.13" stop-color="#fc200d"/><stop offset="0.37" stop-color="#fa4724"/><stop offset="0.69" stop-color="#f88549"/><stop offset="0.86" stop-color="#f6a65d"/><stop offset="1" stop-color="#f6a65d"/></linearGradient></defs><circle class="cls-2" cx="540" cy="540.92" r="361.17"/><circle cx="540" cy="540.92" r="349.28"/><g class="cls-3"><rect class="cls-4" x="415.24" y="247.72" width="249.7" height="368.43"/></g><path class="cls-5" d="M353.9,639.27c-6.77.43-9.25,2.15-9.46,7.1-.11,2.47-.32,7-.32,16.87v11.61c0,11-1.29,19.35-7.53,25.91-5,5.27-12.36,6.88-19.78,6.88-6.23,0-12.9-1.29-17.63-4.94-6.45-5-9.56-12.37-9.56-24.94V650.34c0-9.67-.86-10.32-9.46-11.07v-3h28.27v3c-8.6.54-9.46,1.4-9.46,11.07v26.88c0,15.69,7.42,24.29,20.32,24.29,15.26,0,20.1-9.46,20.1-27.3v-11c0-9.89-.33-14-.54-16.87-.32-4.84-2.79-6.67-10.75-7.1v-3h25.8Z"/><path class="cls-5" d="M423.67,707c-1.4,0-2.58-.11-4-.22-7.85-.54-12-2.58-16.77-9.24-4-5.49-7.85-12.26-11.29-17.74-2.15-3.44-3.55-4.09-9-4.09h-3.76v16.88c0,9.14,1.18,9.68,9.78,10.54v3h-28.7v-3c8.92-1,9.67-1.4,9.67-10.54V649.7c0-9.14-1.18-9.46-9.67-10.43v-3h27.41c7.85,0,13.12,1,17.2,3.66,4.41,2.79,7.31,7.63,7.31,14.19,0,9.24-5.91,15-13.87,18.49,1.94,3.33,6.56,10.53,9.79,15.37A98.07,98.07,0,0,0,416.25,699a15.47,15.47,0,0,0,7.85,5ZM384,672.06c5.59,0,9.14-.86,11.82-3.12,4.2-3.12,5.92-7.42,5.92-13.22,0-11.5-7.64-15.7-15.91-15.7-3.12,0-4.95.43-5.7,1.08-1,.75-1.29,1.83-1.29,4.62v26.34Z"/><path class="cls-5" d="M457.52,639.27c-8.38,1-9.24,1.61-9.24,10.64v39.78c0,14.19-2.26,21.61-9.46,28.06a35.5,35.5,0,0,1-10,6.23l-1.72-3.22a19,19,0,0,0,10.75-14.19c1-5.16,1.08-11.4,1.08-20.43V649.91c0-9-1-9.78-9.78-10.64v-3h28.37Z"/><path class="cls-5" d="M502.46,634.76c18.38,0,34.83,14.08,34.83,35.47,0,23.11-15.7,37.52-35.48,37.52-20.64,0-35.69-15.7-35.69-35.91C466.12,652.6,479.77,634.76,502.46,634.76Zm-2.15,4c-12,0-23,10.11-23,30.21s11,34.72,26.23,34.72c13,0,22.79-9.67,22.79-30.42C526.32,650.67,514.39,638.73,500.31,638.73Z"/><path class="cls-5" d="M603.83,653.14a40.9,40.9,0,0,0-3.44-8.92c-1.72-2.91-2.8-3.66-8.71-3.66H580.93v52.35c0,8.39.86,9.57,11.07,10.22v3H560.72v-3c10-.65,10.86-1.72,10.86-10.22V640.56h-9.79c-5.91,0-7.63.65-9.46,3.87-1.29,2.15-2.15,4.73-3.54,8.71h-3.23c.65-6.56,1.29-13.33,1.61-19.35h2.48c1.61,2.58,2.79,2.47,5.8,2.47H598c3,0,3.87-.43,5.48-2.47h2.58c0,5.05.43,12.79,1,19Z"/><path class="cls-5" d="M653.81,652.6c-1.83-7.09-4.84-14.08-14.94-14.08-8.39,0-11.29,6.13-11.29,11.72,0,7.41,4.73,11.18,13.65,15.8,12.9,6.66,18.49,11.61,18.49,21.82,0,11.29-9.78,19.89-23.65,19.89a44.77,44.77,0,0,1-16.44-3.55,148.33,148.33,0,0,1-2.91-16.12l3.34-.86c2.15,7.2,6.88,16.55,18.06,16.55,7.74,0,12.47-5.37,12.47-12.36,0-8.28-4.41-11.61-13.87-16.77-11.29-6.13-17.63-11.29-17.63-21.29,0-9.56,7.95-18.59,22.14-18.59,6,0,11.94,1.61,14.19,2,.43,3.87.86,8.17,1.72,15.16Z"/><path class="cls-5" d="M710.68,706.14v-3c7-.86,7.84-1.94,6.34-6s-3.55-9.57-5.81-16.34H688c-1.72,4.83-3.33,9-4.83,13.43-2.37,7-.86,7.85,8,8.93v3H666.28v-3c6.77-.86,8.49-1.62,12.25-11.29l22.26-56.44,3.44-.64c6.77,18.38,14.19,38.7,21,57.29,3.44,9.36,4.41,10.22,12,11.08v3Zm-10.75-57.3c-3.44,9.24-7.1,19-10.32,27.52h20.1Z"/><path class="cls-5" d="M799.9,639.27c-7.2,1-9,1.94-12.9,11.61-2.9,7.1-17.74,43.11-23,56.44h-3.54C754.1,690,744.86,664.86,738.73,649c-3-8-4.84-9-11.39-9.68v-3h27.3v3c-7.95.86-8.38,2.15-6.88,6.13,2.69,7.85,10.54,29.24,17.31,47.08,5.7-13.86,12.79-31.39,17.84-44.93,2.37-6.24,1.08-7.2-7.74-8.28v-3H799.9Z"/><text class="cls-6" transform="translate(310.96 776.57)">RGIPT’S ANNUAL TECHFEST</text></svg>